# xmcd
#
# Track frame offsets:
#	150
#	2700
#	24751
#	57369
#	89668
#	104538
#	135460
#	169304
#	186883
#	204542
#	226088
#	267527
#	275482
#	312007
#
# Disc length: 4168 seconds
#
# Revision: 1
# Processed by: cddbd v1.5.2PL0 Copyright (c) Steve Scherf et al.
# Submitted via: audiograbber 1.83.01
#
DISCID=be10460e
DTITLE=Mary Chapin Carpenter - San Rafael 2001 Disc 1
DYEAR=2001
DGENRE=Alt Country
TTITLE0=intro
TTITLE1=In The Name Of Love
TTITLE2=Simple Life
TTITLE3=Swept Away
TTITLE4=Passionate Kisses
TTITLE5=The Hard Way
TTITLE6=Someone Else's Prayer
TTITLE7=This Is Me Leaving You
TTITLE8=band intros
TTITLE9=Whenever You're Ready
TTITLE10=I Feel Lucky
TTITLE11=chat
TTITLE12=The Dreaming Road
TTITLE13=outro
EXTD=
EXTT0=
EXTT1=
EXTT2=
EXTT3=
EXTT4=
EXTT5=
EXTT6=
EXTT7=
EXTT8=
EXTT9=
EXTT10=
EXTT11=
EXTT12=
EXTT13=
PLAYORDER=
